<svg xmlns="http://www.w3.org/2000/svg" viewBox="0 0 231 134" width="231" height="134">
	<style>
		tspan { white-space:pre }
		.shp0 { fill: #ffffff } 
		.shp1 { fill: #fe753e } 
	</style>
	<path id="&lt;Compound Path&gt;" fill-rule="evenodd" class="shp0" d="M147.95 46C148.42 45.72 148.89 45.44 149.35 45.16C150.25 44.62 151.09 44.07 151.86 43.54C152.47 43.13 153.03 42.72 153.56 42.32C157.07 39.64 158.88 37.21 158.41 35.42C157.93 33.61 155.15 32.44 150.78 31.88C150.14 30.41 149.4 28.99 148.57 27.63C156.16 28.2 161.25 30.46 162.29 34.37C163.34 38.27 160.05 42.8 153.76 47.11C153.17 47.51 152.55 47.92 151.91 48.32C151.86 49.08 151.78 49.83 151.69 50.57C151.11 55.01 149.66 59.25 147.47 63.06C143.18 70.54 136.06 76.37 127.11 78.78C118.17 81.19 109.1 79.73 101.67 75.41L101.67 75.4C97.88 73.2 94.52 70.26 91.81 66.71C91.36 66.12 90.93 65.51 90.5 64.87C89.75 64.86 89.01 64.81 88.3 64.76C80.71 64.19 75.61 61.93 74.57 58.02C73.53 54.11 76.82 49.59 83.11 45.27C83.07 46.87 83.13 48.47 83.31 50.07C79.8 52.74 77.98 55.17 78.46 56.97C78.94 58.77 81.72 59.96 86.09 60.51C86.75 60.59 87.43 60.66 88.16 60.71C89.1 60.78 90.1 60.83 91.15 60.86C91.69 60.86 92.23 60.87 92.78 60.87C93.45 60.86 94.15 60.85 94.85 60.83C102.29 60.57 111.46 59.15 121.18 56.53C130.91 53.9 139.56 50.53 146.13 47C146.75 46.67 147.36 46.34 147.95 46ZM89.73 39.3C89.55 40.06 89.39 40.82 89.28 41.59C89.03 43.17 88.91 44.77 88.92 46.39C88.93 47.07 88.95 47.75 89.01 48.43C89.15 50.24 89.45 52.06 89.93 53.88C90.42 55.69 91.05 57.42 91.84 59.06L91.19 59.04C89.97 59.02 88.66 58.96 87.34 58.83C86.84 57.57 86.41 56.27 86.04 54.93C85.69 53.58 85.41 52.23 85.23 50.89C85.13 50.2 85.05 49.52 85 48.84C84.87 47.24 84.86 45.64 84.96 44.06C85.01 43.31 85.08 42.56 85.18 41.81C85.76 37.38 87.22 33.14 89.39 29.33L89.41 29.32C92.74 23.5 97.8 18.67 104.1 15.68C103.12 17.25 102.61 19.12 102.74 21.04C98.61 23.65 95.25 27.21 92.88 31.35C91.46 33.82 90.4 36.5 89.73 39.3ZM115.68 12.56C122.62 11.98 129.4 13.62 135.19 16.97C138.99 19.18 142.36 22.12 145.06 25.67C145.51 26.27 145.95 26.87 146.36 27.51C147.24 28.82 148.02 30.21 148.71 31.67C149 32.29 149.27 32.91 149.52 33.55C150.03 34.81 150.46 36.12 150.82 37.46C151.18 38.8 151.45 40.15 151.64 41.5C150.57 42.27 149.45 42.98 148.41 43.61L147.86 43.95C147.72 42.14 147.42 40.32 146.93 38.51C146.45 36.69 145.81 34.96 145.03 33.33C144.74 32.71 144.42 32.1 144.08 31.51C143.3 30.11 142.39 28.78 141.39 27.54C140.91 26.93 140.4 26.35 139.87 25.79C137.9 23.7 135.65 21.91 133.19 20.49C129.08 18.09 124.4 16.69 119.53 16.52C118.68 14.79 117.32 13.42 115.68 12.56ZM126.07 74.87C133.93 72.75 140.21 67.62 143.98 61.04C145.4 58.56 146.47 55.88 147.14 53.08C147.32 52.33 147.47 51.56 147.59 50.79C146.93 51.14 146.26 51.49 145.57 51.82C139.09 55.04 131.07 58.06 122.23 60.44C113.39 62.83 104.94 64.25 97.73 64.73C96.96 64.78 96.21 64.82 95.47 64.85C95.96 65.45 96.46 66.03 96.99 66.6C98.96 68.69 101.22 70.47 103.68 71.91C110.22 75.7 118.21 76.99 126.07 74.87Z" />
	<path id="SPACE HUB " fill="#ffffff" aria-label="SPACE HUB"  d="M53.85 109.62Q53.85 108.49 53.06 107.89Q52.29 107.28 50.24 106.66Q48.2 106.04 46.99 105.28Q44.68 103.82 44.68 101.47Q44.68 99.41 46.34 98.08Q48.01 96.75 50.67 96.75Q52.44 96.75 53.82 97.4Q55.2 98.06 55.99 99.27Q56.78 100.47 56.78 101.95L53.85 101.95Q53.85 100.62 53.02 99.87Q52.19 99.11 50.65 99.11Q49.21 99.11 48.41 99.73Q47.62 100.35 47.62 101.46Q47.62 102.39 48.47 103.02Q49.33 103.64 51.31 104.24Q53.28 104.82 54.48 105.58Q55.68 106.33 56.24 107.31Q56.79 108.28 56.79 109.59Q56.79 111.72 55.17 112.98Q53.55 114.23 50.77 114.23Q48.94 114.23 47.39 113.56Q45.86 112.87 45 111.66Q44.15 110.46 44.15 108.86L47.09 108.86Q47.09 110.31 48.04 111.1Q49 111.9 50.77 111.9Q52.31 111.9 53.08 111.28Q53.85 110.65 53.85 109.62ZM68.07 107.68L64.57 107.68L64.57 114L61.63 114L61.63 96.98L68.1 96.98Q70.94 96.98 72.6 98.46Q74.27 99.95 74.27 102.39Q74.27 104.89 72.63 106.28Q71.01 107.68 68.07 107.68ZM64.57 99.36L64.57 105.3L68.1 105.3Q69.67 105.3 70.5 104.57Q71.32 103.82 71.32 102.42Q71.32 101.04 70.48 100.22Q69.65 99.39 68.18 99.36L64.57 99.36ZM87.88 114L86.5 110.04L79.95 110.04L78.58 114L75.52 114L81.91 96.98L84.55 96.98L90.95 114L87.88 114ZM83.22 100.59L80.77 107.65L85.68 107.65L83.22 100.59ZM104.86 108.46L107.79 108.46Q107.53 111.18 105.79 112.71Q104.05 114.23 101.16 114.23Q99.14 114.23 97.59 113.28Q96.06 112.3 95.22 110.53Q94.38 108.75 94.35 106.4L94.35 104.81Q94.35 102.4 95.2 100.57Q96.04 98.73 97.62 97.74Q99.22 96.75 101.3 96.75Q104.1 96.75 105.8 98.28Q107.51 99.81 107.79 102.6L104.86 102.6Q104.65 100.77 103.79 99.96Q102.95 99.14 101.3 99.14Q99.38 99.14 98.35 100.56Q97.32 101.96 97.3 104.68L97.3 106.19Q97.3 108.95 98.28 110.4Q99.26 111.85 101.16 111.85Q102.89 111.85 103.76 111.07Q104.63 110.28 104.86 108.46ZM122.56 104.06L122.56 106.4L115.62 106.4L115.62 111.64L123.74 111.64L123.74 114L112.68 114L112.68 96.98L123.65 96.98L123.65 99.36L115.62 99.36L115.62 104.06L122.56 104.06ZM150 96.98L150 114L147.08 114L147.08 106.44L139.51 106.44L139.51 114L136.57 114L136.57 96.98L139.51 96.98L139.51 104.06L147.08 104.06L147.08 96.98L150 96.98ZM165.18 96.98L168.11 96.98L168.11 108.35Q168.11 111.07 166.38 112.66Q164.66 114.23 161.79 114.23Q158.89 114.23 157.18 112.68Q155.47 111.11 155.47 108.34L155.47 96.98L158.4 96.98L158.4 108.37Q158.4 110.07 159.26 110.97Q160.12 111.87 161.79 111.87Q165.18 111.87 165.18 108.27L165.18 96.98ZM179.68 114L173.51 114L173.51 96.98L179.31 96.98Q182.18 96.98 183.67 98.14Q185.17 99.29 185.17 101.59Q185.17 102.75 184.55 103.69Q183.92 104.62 182.71 105.14Q184.08 105.51 184.82 106.55Q185.58 107.58 185.58 109.03Q185.58 111.43 184.05 112.71Q182.52 114 179.68 114ZM179.96 106.32L176.45 106.32L176.45 111.64L179.71 111.64Q181.09 111.64 181.87 110.95Q182.65 110.26 182.65 109.03Q182.65 106.38 179.96 106.32ZM176.45 99.36L176.45 104.15L179.33 104.15Q180.7 104.15 181.47 103.53Q182.24 102.89 182.24 101.75Q182.24 100.49 181.52 99.93Q180.82 99.36 179.31 99.36L176.45 99.36Z" />
	<path id="SIMPLES.RÁPIDO " fill="#ffffff" aria-label="SIMPLES.RÁPIDO"  d="M62.1 131.57Q62.1 130.95 61.67 130.61Q61.24 130.27 60.1 129.93Q58.97 129.59 58.3 129.16Q57.02 128.35 57.02 127.05Q57.02 125.91 57.94 125.17Q58.86 124.43 60.34 124.43Q61.32 124.43 62.09 124.8Q62.85 125.16 63.29 125.83Q63.73 126.5 63.73 127.32L62.1 127.32Q62.1 126.58 61.64 126.16Q61.18 125.74 60.33 125.74Q59.53 125.74 59.08 126.09Q58.65 126.43 58.65 127.05Q58.65 127.56 59.12 127.91Q59.6 128.26 60.69 128.59Q61.79 128.91 62.45 129.33Q63.12 129.75 63.43 130.29Q63.73 130.83 63.73 131.56Q63.73 132.74 62.83 133.44Q61.94 134.13 60.4 134.13Q59.38 134.13 58.52 133.75Q57.67 133.37 57.2 132.7Q56.73 132.04 56.73 131.15L58.36 131.15Q58.36 131.95 58.88 132.39Q59.41 132.83 60.4 132.83Q61.25 132.83 61.67 132.49Q62.1 132.14 62.1 131.57ZM67.94 124.56L67.94 134L66.32 134L66.32 124.56L67.94 124.56ZM71 124.56L73.11 124.56L75.82 131.8L78.52 124.56L80.62 124.56L80.62 134L79 134L79 130.89L79.16 126.73L76.39 134L75.22 134L72.46 126.73L72.62 130.89L72.62 134L71 134L71 124.56ZM87.17 130.49L85.23 130.49L85.23 134L83.6 134L83.6 124.56L87.19 124.56Q88.76 124.56 89.68 125.39Q90.61 126.21 90.61 127.56Q90.61 128.95 89.7 129.72Q88.8 130.49 87.17 130.49ZM85.23 125.89L85.23 129.18L87.19 129.18Q88.06 129.18 88.52 128.77Q88.98 128.35 88.98 127.58Q88.98 126.81 88.51 126.36Q88.05 125.9 87.24 125.89L85.23 125.89ZM94.72 124.56L94.72 132.69L98.98 132.69L98.98 134L93.09 134L93.09 124.56L94.72 124.56ZM106.76 128.49L106.76 129.79L102.91 129.79L102.91 132.69L107.42 132.69L107.42 134L101.28 134L101.28 124.56L107.37 124.56L107.37 125.89L102.91 125.89L102.91 128.49L106.76 128.49ZM114.7 131.57Q114.7 130.95 114.26 130.61Q113.83 130.27 112.7 129.93Q111.56 129.59 110.89 129.16Q109.61 128.35 109.61 127.05Q109.61 125.91 110.53 125.17Q111.46 124.43 112.93 124.43Q113.91 124.43 114.68 124.8Q115.45 125.16 115.88 125.83Q116.32 126.5 116.32 127.32L114.7 127.32Q114.7 126.58 114.24 126.16Q113.78 125.74 112.92 125.74Q112.12 125.74 111.68 126.09Q111.24 126.43 111.24 127.05Q111.24 127.56 111.72 127.91Q112.19 128.26 113.29 128.59Q114.38 128.91 115.05 129.33Q115.71 129.75 116.02 130.29Q116.33 130.83 116.33 131.56Q116.33 132.74 115.43 133.44Q114.53 134.13 112.99 134.13Q111.97 134.13 111.12 133.75Q110.27 133.37 109.79 132.7Q109.32 132.04 109.32 131.15L110.95 131.15Q110.95 131.95 111.48 132.39Q112.01 132.83 112.99 132.83Q113.84 132.83 114.27 132.49Q114.7 132.14 114.7 131.57ZM119.64 132.34Q120.08 132.34 120.32 132.59Q120.55 132.84 120.55 133.22Q120.55 133.59 120.32 133.83Q120.08 134.07 119.64 134.07Q119.22 134.07 118.98 133.83Q118.73 133.59 118.73 133.22Q118.73 132.84 118.97 132.59Q119.21 132.34 119.64 132.34ZM128.88 134L127 130.36L125.18 130.36L125.18 134L123.55 134L123.55 124.56L126.85 124.56Q128.48 124.56 129.36 125.3Q130.24 126.03 130.24 127.41Q130.24 128.36 129.78 129Q129.33 129.64 128.52 129.98L130.63 133.92L130.63 134L128.88 134ZM125.18 125.89L125.18 129.05L126.86 129.05Q127.68 129.05 128.15 128.63Q128.61 128.21 128.61 127.49Q128.61 126.73 128.18 126.31Q127.75 125.9 126.9 125.89L125.18 125.89ZM138.86 134L138.09 131.8L134.46 131.8L133.7 134L132 134L135.55 124.56L137.01 124.56L140.56 134L138.86 134ZM136.28 126.57L134.92 130.48L137.63 130.48L136.28 126.57ZM135.51 124L136.76 122.04L138.55 122.04L136.76 124L135.51 124ZM146.25 130.49L144.31 130.49L144.31 134L142.68 134L142.68 124.56L146.26 124.56Q147.84 124.56 148.76 125.39Q149.69 126.21 149.69 127.56Q149.69 128.95 148.78 129.72Q147.88 130.49 146.25 130.49ZM144.31 125.89L144.31 129.18L146.26 129.18Q147.13 129.18 147.59 128.77Q148.05 128.35 148.05 127.58Q148.05 126.81 147.59 126.36Q147.12 125.9 146.31 125.89L144.31 125.89ZM153.88 124.56L153.88 134L152.26 134L152.26 124.56L153.88 124.56ZM159.64 134L156.94 134L156.94 124.56L159.71 124.56Q160.96 124.56 161.92 125.12Q162.88 125.68 163.41 126.7Q163.94 127.73 163.94 129.05L163.94 129.52Q163.94 130.86 163.4 131.88Q162.88 132.9 161.89 133.45Q160.91 134 159.64 134ZM159.71 125.89L158.57 125.89L158.57 132.69L159.64 132.69Q160.92 132.69 161.6 131.89Q162.29 131.08 162.3 129.57L162.3 129.04Q162.3 127.51 161.64 126.7Q160.97 125.89 159.71 125.89ZM174.1 129L174.1 129.53Q174.1 130.91 173.62 131.96Q173.15 133.01 172.26 133.57Q171.38 134.13 170.22 134.13Q169.08 134.13 168.19 133.57Q167.3 133.01 166.81 131.97Q166.33 130.93 166.32 129.58L166.32 129.05Q166.32 127.67 166.8 126.61Q167.29 125.55 168.18 125Q169.06 124.43 170.21 124.43Q171.36 124.43 172.24 124.99Q173.13 125.54 173.61 126.59Q174.1 127.62 174.1 129ZM172.47 129.53L172.47 129.04Q172.47 127.47 171.88 126.63Q171.29 125.79 170.21 125.79Q169.15 125.79 168.56 126.63Q167.96 127.46 167.95 128.98L167.95 129.53Q167.95 131.08 168.55 131.93Q169.15 132.78 170.22 132.78Q171.31 132.78 171.89 131.95Q172.47 131.12 172.47 129.53Z" />
	<path id="&lt;Compound Path&gt;" fill-rule="evenodd" class="shp1" d="M145.62 40.79C145.89 42.17 146.05 43.57 146.12 44.95C138.34 49.28 129.12 52.51 120.72 54.78C112.32 57.04 102.73 58.89 93.85 59.05C93.21 57.81 92.66 56.52 92.21 55.19L93.34 55.17C100.78 54.91 109.95 53.48 119.67 50.86C129.4 48.25 138.05 44.86 144.62 41.34L145.62 40.79ZM74.54 25.14L76.79 29.96C76.89 30.19 77.12 30.32 77.36 30.29L82.63 29.84C82.91 29.82 83.16 30 83.24 30.27C83.31 30.55 83.18 30.83 82.93 30.95L78.13 33.21C77.92 33.32 77.79 33.54 77.81 33.79L78.25 39.08C78.28 39.37 78.1 39.63 77.83 39.7C77.56 39.77 77.27 39.64 77.16 39.38L74.91 34.57C74.8 34.35 74.58 34.22 74.34 34.24L69.07 34.69C68.78 34.71 68.53 34.53 68.46 34.26C68.39 33.98 68.52 33.7 68.77 33.57L73.56 31.32C73.78 31.21 73.91 30.99 73.89 30.74L73.44 25.44C73.41 25.16 73.59 24.9 73.87 24.83C74.14 24.76 74.43 24.89 74.54 25.14ZM84.42 17.63L85.52 19.98C85.57 20.09 85.68 20.15 85.8 20.15L88.37 19.93C88.5 19.91 88.63 20 88.67 20.14C88.7 20.27 88.63 20.41 88.51 20.47L86.18 21.57C86.07 21.62 86.01 21.73 86.02 21.85L86.24 24.43C86.25 24.57 86.16 24.7 86.03 24.74C85.89 24.77 85.76 24.7 85.7 24.58L84.6 22.23C84.55 22.13 84.44 22.06 84.32 22.07L81.76 22.29C81.61 22.3 81.49 22.21 81.46 22.08C81.42 21.94 81.48 21.81 81.61 21.75L83.95 20.65C84.05 20.6 84.11 20.49 84.11 20.36L83.89 17.78C83.87 17.64 83.96 17.52 84.09 17.48C84.23 17.45 84.37 17.51 84.42 17.63ZM146.26 9.33L147.91 12.85C147.99 13.02 148.15 13.11 148.33 13.1L152.19 12.77C152.4 12.75 152.58 12.88 152.63 13.09C152.69 13.29 152.6 13.49 152.4 13.58L148.9 15.24C148.74 15.31 148.64 15.48 148.66 15.66L148.99 19.55C149 19.75 148.87 19.94 148.67 19.99C148.48 20.04 148.27 19.95 148.18 19.76L146.53 16.23C146.45 16.07 146.3 15.98 146.11 15.99L142.25 16.32C142.05 16.34 141.86 16.21 141.8 16C141.75 15.8 141.85 15.59 142.03 15.51L145.54 13.85C145.71 13.77 145.8 13.61 145.78 13.43L145.46 9.55C145.44 9.34 145.57 9.15 145.77 9.09C145.98 9.04 146.17 9.14 146.26 9.33ZM126.91 0.14C129.04 -0.44 131.24 0.84 131.82 2.99C132.39 5.14 131.12 7.35 128.99 7.93C126.85 8.5 124.65 7.23 124.07 5.08C123.5 2.92 124.77 0.72 126.91 0.14ZM93.28 53.35L91.67 53.38C91.14 51.42 90.85 49.43 90.75 47.43C90.72 46.74 90.72 46.06 90.73 45.38C90.78 43.76 90.96 42.15 91.29 40.56C91.45 39.78 91.65 39.01 91.87 38.25C92.48 36.17 93.34 34.16 94.44 32.25C96.92 27.92 100.46 24.41 104.7 21.98C103.92 18.49 105.88 14.97 109.2 13.78C109.34 13.72 109.47 13.68 109.62 13.64L109.68 13.62L109.76 13.6C113.42 12.62 117.18 14.71 118.31 18.31C122.97 18.29 127.6 19.45 131.76 21.75L132.28 22.05C134.18 23.16 135.92 24.46 137.48 25.95C138.05 26.49 138.61 27.07 139.14 27.66C140.21 28.87 141.17 30.17 142.02 31.56C142.37 32.14 142.7 32.73 143.02 33.34C143.93 35.11 144.66 36.99 145.19 38.95L143.77 39.74C136.17 43.82 127.52 46.87 119.21 49.11C110.9 51.36 101.9 53.06 93.28 53.35Z" />
</svg>